<svg xmlns="http://www.w3.org/2000/svg" version="1.1" xmlnsXlink="http://www.w3.org/1999/xlink" x="0px" y="0px" viewBox="0 0 88.67 93.5">
<g id="Layer_1">
	<path d="M18.28,33.72c0.59,0.19,1.16,0.42,1.72,0.71c0.55,0.29,1.02,0.64,1.41,1.04c0.39,0.4,0.58,0.87,0.59,1.39   c0,0.51-0.15,0.98-0.45,1.41c-0.3,0.43-0.68,0.83-1.15,1.19c-0.47,0.36-1.01,0.67-1.61,0.94c-0.6,0.27-1.21,0.5-1.82,0.68   c-0.61,0.19-1.2,0.33-1.77,0.43c-0.57,0.1-1.05,0.15-1.45,0.15c-0.15,0.39-0.31,0.63-0.49,0.73c-0.18,0.1-0.47,0.15-0.87,0.15   c-0.12,0-0.27-0.02-0.46-0.06c-0.19-0.04-0.28-0.14-0.28-0.3c0-0.28,0.01-0.57,0.03-0.85c0.02-0.28,0.05-0.57,0.08-0.85   c0.04-0.49,0.09-0.99,0.13-1.49c0.04-0.5,0.1-1,0.15-1.49c0.18-1.61,0.39-3.2,0.64-4.78c0.25-1.57,0.55-3.15,0.89-4.73   c-0.34,0.03-0.68,0.06-1.01,0.08c-0.33,0.02-0.66,0.06-0.98,0.1c-0.12,0.02-0.23,0.03-0.35,0.06c-0.11,0.02-0.23,0.03-0.35,0.03   c-0.22,0-0.33-0.1-0.33-0.29c0-0.22,0.1-0.36,0.32-0.41c0.22-0.05,0.41-0.09,0.57-0.12c0.39-0.06,0.78-0.12,1.16-0.17   c0.39-0.05,0.77-0.09,1.16-0.12c0.12-0.52,0.25-1.04,0.4-1.54c0.16-0.52,0.51-0.9,1.05-1.12c0.28-0.12,0.56-0.18,0.83-0.18   c0.06,0,0.14,0.01,0.24,0.02c0.1,0.01,0.15,0.07,0.15,0.16c0,0.05-0.02,0.1-0.05,0.16c-0.15,0.34-0.26,0.74-0.35,1.2   c-0.08,0.46-0.16,0.87-0.23,1.24c0.22,0,0.53,0.01,0.93,0.02c0.4,0.01,0.82,0.04,1.29,0.09c0.46,0.04,0.93,0.11,1.4,0.2   c0.47,0.09,0.9,0.21,1.28,0.37c0.38,0.16,0.69,0.34,0.94,0.57c0.25,0.22,0.37,0.5,0.37,0.83c0,0.3-0.09,0.6-0.28,0.89   c-0.19,0.3-0.43,0.59-0.74,0.88c-0.31,0.29-0.65,0.57-1.02,0.83c-0.38,0.26-0.75,0.5-1.14,0.71c-0.39,0.21-0.76,0.39-1.12,0.54   c-0.36,0.15-0.66,0.25-0.92,0.31C17.2,33.39,17.7,33.53,18.28,33.72z M14.12,36.65c-0.15,0.95-0.22,1.9-0.22,2.85   c0,0.15,0,0.3,0,0.45c0,0.13,0.01,0.28,0.02,0.42c0.25-0.02,0.6-0.06,1.03-0.15c0.43-0.08,0.9-0.19,1.4-0.31   c0.5-0.13,1-0.28,1.51-0.47c0.51-0.19,0.97-0.4,1.39-0.63c0.42-0.23,0.76-0.49,1.02-0.76c0.26-0.28,0.39-0.58,0.39-0.91   c0-0.36-0.11-0.69-0.34-0.98c-0.23-0.3-0.52-0.56-0.88-0.79c-0.36-0.23-0.76-0.43-1.21-0.6c-0.45-0.17-0.9-0.32-1.36-0.45   c-0.46-0.13-0.88-0.23-1.29-0.31c-0.4-0.08-0.74-0.14-1.03-0.19C14.41,34.76,14.26,35.71,14.12,36.65z M20.37,28.83   c-0.21-0.16-0.47-0.29-0.8-0.4c-0.32-0.11-0.68-0.2-1.07-0.27c-0.4-0.07-0.78-0.11-1.16-0.14c-0.38-0.03-0.73-0.05-1.03-0.07   c-0.31-0.01-0.54-0.02-0.71-0.02c-0.16,0.81-0.31,1.62-0.44,2.43c-0.13,0.81-0.26,1.62-0.4,2.43c0.36-0.09,0.87-0.23,1.52-0.43   c0.66-0.19,1.31-0.44,1.97-0.73c0.66-0.29,1.23-0.63,1.71-1c0.48-0.37,0.73-0.78,0.73-1.23C20.69,29.18,20.58,28.99,20.37,28.83z"/>
	<path d="M23.71,36.62c0.1-0.71,0.25-1.38,0.46-2.03c0.12-0.34,0.32-0.61,0.59-0.81c0.28-0.19,0.59-0.29,0.93-0.29   c0.34,0,0.52,0.16,0.52,0.49c0,0.12-0.02,0.24-0.05,0.37c-0.04,0.13-0.07,0.25-0.1,0.37c-0.12,0.37-0.24,0.78-0.37,1.23   c-0.13,0.45-0.24,0.91-0.33,1.38c-0.1,0.47-0.18,0.94-0.24,1.4c-0.07,0.46-0.1,0.89-0.1,1.27c0,0.15,0.02,0.34,0.06,0.56   c0.04,0.22,0.16,0.34,0.37,0.34c0.25,0,0.53-0.12,0.84-0.35c0.31-0.23,0.62-0.53,0.94-0.9c0.32-0.36,0.64-0.77,0.95-1.22   c0.31-0.45,0.6-0.89,0.87-1.33c0.27-0.44,0.51-0.85,0.71-1.22c0.21-0.37,0.36-0.67,0.45-0.9c0.06-0.13,0.12-0.29,0.18-0.46   c0.06-0.17,0.13-0.33,0.22-0.47c0.09-0.14,0.2-0.26,0.32-0.36c0.12-0.1,0.29-0.15,0.48-0.15c0.13,0,0.25,0.02,0.35,0.07   c0.1,0.04,0.15,0.15,0.15,0.31c0,0.15-0.03,0.29-0.08,0.44c-0.05,0.14-0.1,0.28-0.14,0.42c-0.12,0.33-0.23,0.7-0.35,1.12   c-0.11,0.42-0.21,0.84-0.29,1.28c-0.08,0.43-0.14,0.86-0.19,1.3c-0.04,0.43-0.07,0.82-0.07,1.16c0,0.1,0.01,0.25,0.02,0.43   c0.01,0.18,0.04,0.35,0.09,0.53c0.04,0.17,0.11,0.32,0.2,0.45c0.09,0.13,0.21,0.19,0.36,0.19c0.22,0,0.51-0.15,0.85-0.46   c0.34-0.31,0.68-0.67,1.03-1.08c0.34-0.41,0.66-0.82,0.95-1.22c0.29-0.4,0.49-0.7,0.61-0.9c0.08-0.1,0.17-0.24,0.3-0.41   c0.13-0.17,0.26-0.26,0.39-0.26c0.13,0,0.22,0.04,0.26,0.12c0.04,0.08,0.06,0.18,0.06,0.3c0,0.07-0.02,0.15-0.05,0.23   c-0.04,0.08-0.07,0.16-0.1,0.24c-0.18,0.36-0.44,0.79-0.8,1.29c-0.36,0.5-0.76,0.98-1.2,1.44c-0.45,0.46-0.91,0.86-1.39,1.19   c-0.48,0.33-0.93,0.49-1.37,0.49c-0.34,0-0.61-0.12-0.81-0.36c-0.19-0.24-0.34-0.52-0.45-0.85c-0.11-0.33-0.17-0.67-0.19-1.04   c-0.02-0.37-0.03-0.67-0.03-0.91c0-0.15,0-0.29,0-0.42c0-0.13,0.01-0.28,0.04-0.42c-0.22,0.31-0.49,0.68-0.82,1.1   c-0.32,0.42-0.68,0.81-1.06,1.19c-0.39,0.37-0.79,0.69-1.22,0.95c-0.42,0.26-0.85,0.39-1.26,0.39c-0.4,0-0.71-0.11-0.93-0.33   c-0.22-0.22-0.38-0.5-0.47-0.82c-0.1-0.32-0.16-0.66-0.18-1.03c-0.02-0.37-0.04-0.69-0.04-0.97   C23.56,38.02,23.61,37.33,23.71,36.62z"/>
	<path d="M34.47,42.22c-0.08-0.11-0.11-0.24-0.11-0.39c0-1.1,0.11-2.24,0.34-3.4c0.23-1.16,0.46-2.28,0.68-3.36   c0.07-0.34,0.14-0.69,0.2-1.05c0.06-0.36,0.13-0.71,0.2-1.05c0.06-0.27,0.22-0.52,0.48-0.74c0.26-0.22,0.53-0.34,0.82-0.34   c0.25,0,0.43,0.07,0.53,0.2c0.1,0.13,0.14,0.32,0.14,0.56c0,0.39-0.06,0.79-0.19,1.22c-0.13,0.42-0.25,0.82-0.39,1.18   c-0.16,0.42-0.29,0.84-0.38,1.28c-0.09,0.43-0.16,0.87-0.22,1.3c0.17-0.24,0.41-0.58,0.73-1.03c0.32-0.45,0.67-0.89,1.04-1.32   c0.37-0.43,0.75-0.81,1.13-1.14c0.38-0.33,0.71-0.49,0.99-0.49c0.22,0,0.4,0.08,0.54,0.25c0.13,0.16,0.23,0.37,0.3,0.6   c0.07,0.24,0.11,0.48,0.12,0.72c0.01,0.24,0.03,0.44,0.03,0.6c0,0.52-0.02,1.05-0.04,1.57c-0.03,0.52-0.04,1.05-0.04,1.57   c0,0.13,0,0.28,0.01,0.44c0.01,0.16,0.03,0.3,0.08,0.44c0.04,0.13,0.12,0.25,0.21,0.34c0.1,0.09,0.24,0.14,0.42,0.14   c0.3,0,0.6-0.12,0.9-0.35c0.31-0.23,0.6-0.51,0.88-0.83c0.28-0.32,0.54-0.65,0.76-1c0.22-0.34,0.4-0.63,0.51-0.87   c0.06-0.1,0.13-0.22,0.22-0.36c0.09-0.13,0.2-0.2,0.34-0.2c0.12,0,0.21,0.05,0.28,0.14c0.07,0.1,0.1,0.2,0.1,0.3   c0,0.06-0.02,0.14-0.06,0.22c-0.04,0.09-0.07,0.16-0.1,0.22c-0.16,0.34-0.4,0.74-0.7,1.18c-0.3,0.44-0.65,0.86-1.05,1.24   c-0.4,0.39-0.81,0.72-1.25,0.99c-0.44,0.27-0.87,0.4-1.28,0.4c-0.39,0-0.69-0.1-0.91-0.3c-0.22-0.2-0.38-0.45-0.5-0.75   c-0.11-0.3-0.18-0.62-0.2-0.96c-0.02-0.34-0.03-0.66-0.03-0.94c0-0.43,0.01-0.86,0.04-1.28c0.03-0.42,0.04-0.84,0.04-1.28   c0-0.06-0.01-0.15-0.03-0.27c-0.02-0.12-0.08-0.18-0.17-0.18c-0.07,0-0.16,0.04-0.27,0.13c-0.11,0.09-0.19,0.17-0.25,0.23   c-0.38,0.36-0.72,0.78-1.05,1.25c-0.33,0.48-0.62,0.93-0.89,1.37c-0.33,0.52-0.62,1.06-0.89,1.6c-0.27,0.54-0.53,1.1-0.78,1.67   c-0.09,0.18-0.21,0.34-0.37,0.49c-0.16,0.15-0.34,0.22-0.55,0.22C34.66,42.39,34.54,42.33,34.47,42.22z"/>
	<path d="M51.83,36.07c0,0.87-0.18,1.72-0.54,2.55c-0.37,0.84-0.86,1.56-1.49,2.17c-0.33,0.33-0.71,0.62-1.16,0.89   c-0.45,0.26-0.91,0.39-1.39,0.39c-0.52,0-0.94-0.15-1.25-0.47c-0.31-0.31-0.55-0.69-0.72-1.14c-0.17-0.45-0.27-0.93-0.33-1.43   c-0.05-0.51-0.08-0.95-0.08-1.32c0-1.79,0.19-3.57,0.56-5.33c0.38-1.76,0.81-3.5,1.3-5.22c0.16-0.55,0.32-1.1,0.49-1.66   c0.16-0.55,0.35-1.1,0.56-1.63c0.08-0.18,0.14-0.34,0.21-0.47c0.07-0.13,0.15-0.25,0.24-0.35c0.09-0.1,0.2-0.18,0.32-0.26   c0.13-0.08,0.28-0.16,0.46-0.25c0.12-0.06,0.25-0.11,0.38-0.16c0.13-0.04,0.27-0.07,0.41-0.07c0.16,0,0.28,0.05,0.36,0.14   c0.08,0.1,0.11,0.23,0.11,0.39c0,0.15-0.02,0.33-0.07,0.53c-0.05,0.2-0.1,0.4-0.17,0.61c-0.07,0.2-0.14,0.4-0.21,0.58   c-0.08,0.19-0.14,0.35-0.2,0.5c-0.52,1.34-0.99,2.71-1.42,4.11c-0.43,1.4-0.76,2.81-0.98,4.24c-0.12,0.72-0.24,1.43-0.35,2.15   c-0.12,0.72-0.18,1.43-0.18,2.15c0,0.16,0.01,0.44,0.02,0.82c0.01,0.38,0.06,0.76,0.13,1.14c0.08,0.38,0.19,0.72,0.34,1.01   c0.15,0.29,0.37,0.44,0.65,0.44c0.19,0,0.37-0.06,0.54-0.17c0.17-0.11,0.31-0.23,0.42-0.35c0.22-0.21,0.43-0.47,0.64-0.8   c0.2-0.32,0.38-0.66,0.54-1.02c0.16-0.36,0.29-0.72,0.39-1.1c0.1-0.37,0.15-0.71,0.14-1.01c0-0.73-0.21-1.24-0.63-1.53   c-0.42-0.29-0.96-0.44-1.63-0.43c-0.14,0-0.26-0.07-0.36-0.22c-0.1-0.15-0.16-0.28-0.16-0.4c0-0.22,0.09-0.38,0.28-0.48   c0.19-0.1,0.38-0.15,0.57-0.17c0.23-0.02,0.44-0.02,0.65-0.02c0.23,0,0.45-0.01,0.67-0.02c0.45-0.03,0.89-0.08,1.33-0.14   c0.44-0.06,0.88-0.1,1.33-0.14h0.06c0.14-0.02,0.26,0.03,0.37,0.12c0.11,0.1,0.17,0.21,0.17,0.35c0,0.13-0.08,0.25-0.22,0.35   c-0.15,0.1-0.33,0.18-0.53,0.24c-0.2,0.06-0.41,0.1-0.62,0.13c-0.21,0.03-0.36,0.05-0.47,0.07C51.66,34.87,51.83,35.43,51.83,36.07   z"/>
	<path d="M53.33,36.57c0.1-0.71,0.25-1.38,0.46-2.03c0.12-0.34,0.32-0.61,0.59-0.81c0.28-0.19,0.59-0.29,0.93-0.29   c0.34,0,0.52,0.16,0.52,0.49c0,0.12-0.02,0.24-0.05,0.37c-0.04,0.13-0.07,0.25-0.1,0.37c-0.12,0.37-0.24,0.78-0.37,1.23   c-0.13,0.45-0.24,0.91-0.33,1.38c-0.1,0.47-0.18,0.94-0.24,1.4c-0.07,0.46-0.1,0.89-0.1,1.28c0,0.15,0.02,0.34,0.05,0.56   c0.04,0.22,0.16,0.33,0.37,0.33c0.25,0,0.53-0.12,0.84-0.35c0.31-0.23,0.62-0.53,0.94-0.9c0.32-0.37,0.64-0.77,0.95-1.22   c0.31-0.45,0.6-0.89,0.87-1.33c0.27-0.44,0.51-0.85,0.71-1.22c0.21-0.37,0.36-0.67,0.45-0.9c0.06-0.13,0.12-0.29,0.18-0.46   c0.06-0.17,0.13-0.33,0.22-0.47c0.09-0.14,0.2-0.26,0.32-0.36c0.13-0.1,0.29-0.14,0.48-0.14c0.13,0,0.25,0.02,0.35,0.07   c0.1,0.04,0.15,0.15,0.15,0.31c0,0.15-0.03,0.3-0.08,0.44c-0.05,0.14-0.1,0.28-0.15,0.41c-0.12,0.33-0.23,0.7-0.34,1.12   c-0.11,0.42-0.21,0.84-0.29,1.28c-0.08,0.43-0.14,0.87-0.19,1.3c-0.04,0.43-0.07,0.82-0.07,1.16c0,0.1,0.01,0.25,0.02,0.43   c0.01,0.18,0.04,0.36,0.09,0.53c0.04,0.17,0.11,0.32,0.2,0.45c0.09,0.13,0.21,0.19,0.36,0.19c0.22,0,0.51-0.15,0.85-0.46   c0.34-0.31,0.68-0.66,1.03-1.08c0.34-0.41,0.66-0.82,0.95-1.22c0.29-0.4,0.5-0.7,0.62-0.9c0.07-0.1,0.17-0.24,0.3-0.41   c0.13-0.17,0.26-0.26,0.39-0.26c0.13,0,0.22,0.04,0.26,0.12c0.04,0.08,0.06,0.18,0.06,0.3c0,0.08-0.02,0.15-0.05,0.23   c-0.04,0.08-0.07,0.16-0.1,0.24c-0.18,0.36-0.45,0.79-0.8,1.29c-0.36,0.5-0.76,0.98-1.21,1.44c-0.45,0.46-0.91,0.86-1.39,1.19   c-0.48,0.33-0.93,0.49-1.36,0.5c-0.34,0-0.61-0.12-0.81-0.36c-0.2-0.24-0.34-0.52-0.45-0.85c-0.1-0.33-0.17-0.67-0.19-1.04   c-0.02-0.37-0.03-0.67-0.03-0.91c0-0.15,0-0.29,0-0.43c0-0.13,0.01-0.27,0.04-0.42c-0.22,0.31-0.5,0.68-0.82,1.1   c-0.32,0.42-0.67,0.81-1.06,1.19c-0.39,0.37-0.79,0.69-1.22,0.95c-0.42,0.26-0.85,0.39-1.26,0.39c-0.4,0-0.71-0.11-0.93-0.33   c-0.22-0.22-0.38-0.5-0.47-0.82c-0.1-0.32-0.16-0.66-0.18-1.03c-0.02-0.37-0.04-0.69-0.04-0.97   C53.18,37.97,53.23,37.28,53.33,36.57z"/>
	<path d="M67.29,35.89c-0.28-0.22-0.58-0.39-0.91-0.49c-0.12,0.33-0.25,0.67-0.39,1.03c-0.14,0.36-0.3,0.72-0.48,1.08   c-0.18,0.36-0.37,0.7-0.58,1.03c-0.21,0.33-0.44,0.62-0.69,0.87c-0.08,0.07-0.17,0.15-0.27,0.22c-0.1,0.08-0.22,0.11-0.33,0.11   c-0.19,0-0.29-0.1-0.29-0.29c0-0.09,0.02-0.18,0.06-0.26c0.04-0.08,0.09-0.16,0.15-0.23c0.43-0.63,0.84-1.27,1.21-1.93   c0.38-0.66,0.61-1.37,0.7-2.13c-0.21-0.27-0.36-0.56-0.45-0.88c-0.09-0.32-0.14-0.65-0.14-0.99c0-0.18,0.03-0.41,0.08-0.69   c0.05-0.28,0.13-0.56,0.24-0.83c0.11-0.27,0.25-0.5,0.42-0.69c0.17-0.2,0.36-0.29,0.58-0.29c0.16,0,0.29,0.07,0.38,0.21   c0.09,0.14,0.16,0.31,0.23,0.49c0.06,0.19,0.09,0.38,0.11,0.57c0.01,0.19,0.02,0.35,0.02,0.47c0,0.36-0.02,0.72-0.06,1.08   c0.18,0.27,0.42,0.49,0.71,0.66c0.3,0.17,0.59,0.36,0.89,0.56c0.29,0.2,0.54,0.45,0.75,0.74c0.21,0.29,0.31,0.68,0.31,1.17   c0,0.25-0.04,0.55-0.11,0.87c-0.12,0.52-0.22,1.05-0.31,1.57c-0.09,0.52-0.14,1.05-0.13,1.59c0,0.15,0.02,0.32,0.05,0.53   c0.04,0.2,0.16,0.3,0.37,0.3c0.25,0,0.55-0.13,0.88-0.38c0.34-0.25,0.67-0.55,0.99-0.9c0.33-0.34,0.63-0.69,0.92-1.04   c0.28-0.35,0.49-0.63,0.62-0.84c0.08-0.1,0.16-0.22,0.26-0.35c0.1-0.13,0.21-0.19,0.35-0.19c0.14,0,0.22,0.05,0.26,0.15   c0.04,0.1,0.05,0.21,0.05,0.32c0,0.09-0.02,0.17-0.05,0.25c-0.04,0.08-0.08,0.15-0.12,0.22c-0.18,0.28-0.45,0.64-0.8,1.08   c-0.35,0.43-0.73,0.85-1.14,1.25c-0.41,0.4-0.84,0.75-1.28,1.03c-0.44,0.29-0.84,0.43-1.2,0.43c-0.37,0-0.66-0.11-0.87-0.34   c-0.21-0.23-0.37-0.5-0.47-0.82c-0.11-0.32-0.17-0.66-0.2-1.01c-0.02-0.36-0.03-0.67-0.03-0.94c0-0.42,0.02-0.83,0.05-1.23   c0.04-0.4,0.06-0.81,0.06-1.23C67.71,36.41,67.57,36.12,67.29,35.89z"/>
	<g>
		<path class="st0" fill="#8DC63F" d="M10.03,57.7l3.6-0.01l0,1.63l-1.47,0l0,1.55l1.31,0l0,1.55l-1.31,0l0,3.43l-2.12,0L10.03,57.7z"/>
		<path class="st0" fill="#8DC63F" d="M17.6,57.69l1.23,8.16l-2.17,0l-0.12-1.47l-0.76,0l-0.13,1.47l-2.2,0l1.07-8.17L17.6,57.69z M16.49,62.94    c-0.11-0.92-0.22-2.07-0.33-3.43c-0.21,1.56-0.35,2.71-0.4,3.43H16.49z"/>
		<path class="st0" fill="#8DC63F" d="M19.18,57.68l1.5,0c1,0,1.68,0.04,2.03,0.11c0.35,0.08,0.64,0.27,0.87,0.59c0.23,0.32,0.34,0.82,0.34,1.52    c0,0.64-0.08,1.06-0.24,1.28c-0.16,0.22-0.47,0.35-0.93,0.39c0.42,0.1,0.7,0.24,0.85,0.42c0.14,0.18,0.23,0.34,0.27,0.48    c0.03,0.15,0.05,0.55,0.06,1.21v2.15l-1.97,0l-0.01-2.71c0-0.44-0.03-0.71-0.1-0.81c-0.07-0.1-0.25-0.16-0.54-0.16l0,3.68l-2.12,0    L19.18,57.68z M21.31,59.08v1.82c0.24,0,0.41-0.03,0.5-0.1c0.1-0.07,0.14-0.28,0.14-0.64v-0.45c0-0.26-0.05-0.43-0.14-0.51    C21.72,59.12,21.55,59.08,21.31,59.08z"/>
		<path class="st0" fill="#8DC63F" d="M31.29,57.66l0.01,8.17l-1.86,0l-0.01-5.51l-0.73,5.51l-1.32,0l-0.79-5.39l0.01,5.39l-1.86,0l-0.01-8.17    l2.75,0c0.08,0.49,0.17,1.07,0.25,1.74l0.3,2.08l0.48-3.81L31.29,57.66z"/>
		<path class="st0" fill="#8DC63F" d="M32.15,57.66l3.54,0l0,1.63l-1.42,0l0,1.55l1.33,0l0,1.55l-1.33,0l0,1.8l1.56,0l0,1.63l-3.68,0.01    L32.15,57.66z"/>
		<path class="st0" fill="#8DC63F" d="M36.44,57.66l1.5,0c1,0,1.68,0.04,2.04,0.11c0.35,0.08,0.65,0.27,0.87,0.59c0.22,0.32,0.34,0.83,0.34,1.52    c0,0.64-0.08,1.06-0.23,1.28c-0.16,0.22-0.47,0.35-0.93,0.39c0.42,0.1,0.71,0.24,0.85,0.42c0.14,0.18,0.23,0.34,0.27,0.48    c0.04,0.15,0.05,0.55,0.05,1.21l0,2.15l-1.97,0l0-2.71c0-0.44-0.04-0.71-0.11-0.81c-0.07-0.1-0.25-0.16-0.54-0.16l0.01,3.68    l-2.12,0L36.44,57.66z M38.56,59.05l0,1.82c0.24,0,0.4-0.03,0.5-0.1c0.09-0.07,0.14-0.28,0.14-0.64l0-0.45    c0-0.26-0.05-0.43-0.14-0.51C38.98,59.09,38.81,59.05,38.56,59.05z"/>
		<path class="st0" fill="#8DC63F" d="M46.5,60.11l-1.97,0l0-0.61c0-0.28-0.02-0.46-0.08-0.54c-0.05-0.08-0.13-0.12-0.25-0.12    c-0.13,0-0.23,0.05-0.29,0.16c-0.07,0.1-0.1,0.26-0.1,0.47c0,0.27,0.04,0.48,0.11,0.62c0.07,0.14,0.27,0.31,0.6,0.5    c0.94,0.56,1.54,1.02,1.79,1.38c0.25,0.36,0.37,0.94,0.37,1.74c0,0.58-0.07,1.01-0.21,1.29c-0.13,0.28-0.4,0.51-0.79,0.69    c-0.39,0.19-0.84,0.28-1.36,0.28c-0.57,0-1.05-0.11-1.46-0.32c-0.4-0.21-0.67-0.49-0.79-0.82c-0.12-0.33-0.19-0.81-0.19-1.42    v-0.54l1.97,0v0.99c0,0.31,0.03,0.5,0.08,0.59c0.06,0.09,0.15,0.13,0.3,0.13c0.14,0,0.25-0.06,0.31-0.17    c0.07-0.11,0.1-0.28,0.1-0.5c0-0.48-0.07-0.79-0.2-0.94c-0.13-0.15-0.46-0.39-0.99-0.74c-0.53-0.35-0.88-0.6-1.05-0.76    c-0.17-0.16-0.31-0.38-0.43-0.66c-0.11-0.28-0.17-0.63-0.17-1.07c0-0.62,0.08-1.08,0.24-1.37c0.16-0.29,0.42-0.52,0.77-0.68    c0.36-0.17,0.79-0.25,1.29-0.25c0.55,0,1.02,0.09,1.41,0.27c0.39,0.18,0.65,0.4,0.77,0.67c0.13,0.27,0.19,0.73,0.19,1.38    L46.5,60.11z"/>
		<path class="st0" fill="#8DC63F" d="M55.71,57.63l0.01,8.16l-1.86,0l-0.01-5.51l-0.73,5.51l-1.32,0l-0.79-5.38l0.01,5.39l-1.86,0l-0.01-8.16    l2.75,0c0.08,0.49,0.17,1.07,0.26,1.74l0.3,2.08l0.48-3.81L55.71,57.63z"/>
		<path class="st0" fill="#8DC63F" d="M60.24,57.62l1.23,8.16l-2.17,0l-0.12-1.47l-0.76,0l-0.13,1.47l-2.19,0l1.07-8.17L60.24,57.62z M59.12,62.87    c-0.11-0.92-0.22-2.07-0.33-3.43c-0.22,1.56-0.35,2.71-0.41,3.43L59.12,62.87z"/>
		<path class="st0" fill="#8DC63F" d="M61.81,57.62l1.5,0c1,0,1.68,0.04,2.03,0.11c0.35,0.08,0.64,0.27,0.87,0.59c0.22,0.32,0.34,0.83,0.34,1.52    c0,0.64-0.08,1.06-0.23,1.28c-0.16,0.22-0.47,0.35-0.93,0.39c0.42,0.1,0.7,0.24,0.85,0.42c0.15,0.17,0.24,0.33,0.27,0.48    c0.04,0.15,0.05,0.55,0.05,1.21l0,2.15l-1.97,0l0-2.71c0-0.44-0.04-0.71-0.1-0.81c-0.07-0.1-0.25-0.16-0.54-0.16l0,3.68l-2.12,0    L61.81,57.62z M63.94,59.01l0,1.82c0.24,0,0.41-0.03,0.5-0.1c0.09-0.07,0.14-0.28,0.14-0.64v-0.45c0-0.26-0.05-0.43-0.14-0.51    C64.35,59.05,64.18,59.01,63.94,59.01z"/>
		<path class="st0" fill="#8DC63F" d="M72.44,57.6l-1.21,3.69l1.34,4.48l-2.19,0l-0.87-3.5l0.01,3.5l-2.12,0l-0.01-8.17l2.12,0l0,3.17l0.94-3.17    L72.44,57.6z"/>
		<path class="st0" fill="#8DC63F" d="M72.92,57.6l3.54,0v1.63l-1.42,0l0,1.55l1.33,0l0,1.55l-1.33,0l0,1.8l1.56,0l0,1.63l-3.68,0.01L72.92,57.6z"/>
		<path class="st0" fill="#8DC63F" d="M81.35,57.59l0,1.63l-1.26,0l0.01,6.53l-2.12,0l-0.01-6.53l-1.26,0l0-1.64L81.35,57.59z"/>
	</g>
	<path d="M80.96,35.22c-0.02-0.27-0.06-0.52-0.12-0.76c-0.05-0.24-0.12-0.39-0.21-0.45c-0.15-0.1-0.3-0.16-0.45-0.16   c-0.18,0-0.33,0.08-0.46,0.23c-0.13,0.15-0.24,0.28-0.34,0.4c-0.54,0.69-1.06,1.38-1.58,2.07c-0.51,0.69-1.08,1.36-1.69,1.98   c-0.06,0.06-0.16,0.16-0.3,0.29c-0.14,0.13-0.29,0.27-0.45,0.4c-0.16,0.13-0.31,0.25-0.46,0.36c-0.15,0.1-0.27,0.16-0.36,0.16   c-0.12,0-0.19-0.06-0.2-0.18c-0.02-0.12-0.02-0.21-0.02-0.29c0-0.21,0.03-0.47,0.1-0.78c0.07-0.31,0.15-0.64,0.25-0.99   c0.1-0.34,0.2-0.67,0.31-0.98c0.11-0.31,0.2-0.57,0.28-0.76c0.08-0.18,0.17-0.4,0.29-0.66c0.12-0.26,0.18-0.49,0.18-0.68   c0-0.25-0.1-0.47-0.29-0.65c-0.2-0.18-0.42-0.27-0.67-0.27c-0.21,0-0.38,0.06-0.52,0.18c-0.13,0.12-0.24,0.27-0.33,0.45   c-0.07,0.14-0.13,0.27-0.17,0.42c-0.04,0.14-0.08,0.29-0.12,0.44c-0.21,0.64-0.39,1.31-0.54,1.99c-0.16,0.69-0.23,1.37-0.23,2.04   c0,0.19,0.02,0.4,0.05,0.62c0.03,0.22,0.09,0.41,0.18,0.58c0.09,0.17,0.21,0.31,0.37,0.42c0.16,0.11,0.36,0.17,0.62,0.17   c0.37,0,0.82-0.19,1.33-0.55c0.51-0.37,1.03-0.8,1.53-1.3c0.51-0.5,0.97-1.01,1.4-1.52c0.43-0.52,0.73-0.93,0.91-1.24   c0.05,1.16,0.07,2.32,0.07,3.47c0,0.21,0,0.43,0,0.65c0,0.21-0.01,0.42-0.02,0.63l-0.11,0.96c-0.04,0.49-0.13,1.04-0.24,1.64   c-0.12,0.61-0.26,1.21-0.43,1.82c-0.17,0.61-0.37,1.2-0.6,1.76c-0.23,0.56-0.49,1.04-0.79,1.42c-0.27,0.34-0.91,0.88-0.94,0.91   c-5.07,4.11-13.66,1.42-19.45,0.6c-5.61-0.79-11.13-2-16.79-2.43c-10.61-0.79-21.76,0.64-31.53,4.91c-2.01,0.88,1.14,0.74,1.91,0.4   c14.73-6.44,29.99-3.55,45.22-1.4c7.23,1.02,16.88,3.2,21.8-1.35c0.02-0.02,1.45-0.93,2.65-4.41c0.33-0.97,0.53-2,0.69-3.03   c0.15-1.04,0.25-2.08,0.29-3.13c0.04-1.05,0.05-2.07,0.05-3.05c0-0.12,0-0.31,0-0.56C80.99,35.75,80.98,35.49,80.96,35.22z"/>
</g>
</svg>